# xmcd CD database file
#
# Track frame offsets:
#	150
#	11857
#	24375
#	78707
#	89762
#	103622
#	116405
#	126722
#	140292
#	153122
#	166305
#	178057
#	191552
#	203070
#	216582
#
# Disc length: 3084 seconds
#
# Revision: 2
# Processed by: cddbd v1.5.2PL0 Copyright (c) Steve Scherf et al.
# Submitted via: CDex 1.51
#
DISCID=d70c0a0f
DTITLE=Sonny Boy Williamson - Bummer Road
DYEAR=1900
DGENRE=Blues
TTITLE0=She Got Next To Me
TTITLE1=Santa Claus
TTITLE2=Little Village
TTITLE3=Your Funeral And My Trial (Alternate)
TTITLE4=Lonesome Cabin
TTITLE5=I Can't Do Without You
TTITLE6=Temperature 110
TTITLE7=Unseen Eye
TTITLE8=Keep Your Hand Out Of My Pocket
TTITLE9=Open Road
TTITLE10=This Old Life
TTITLE11=Your Imagination
TTITLE12=The Key (To Your Door) (Alternate)
TTITLE13=Unseening Eye
TTITLE14=I Can't Be Alone
EXTD=
EXTT0=
EXTT1=
EXTT2=
EXTT3=
EXTT4=
EXTT5=
EXTT6=
EXTT7=
EXTT8=
EXTT9=
EXTT10=
EXTT11=
EXTT12=
EXTT13=
EXTT14=
PLAYORDER=
